
<svg width="20px" height="16px" viewBox="0 0 20 16" version="1.1" xmlns="http://www.w3.org/2000/svg" xmlns:xlink="http://www.w3.org/1999/xlink">
    <g id="Kunsthalle-Zürich" stroke="none" stroke-width="1" fill="none" fill-rule="evenodd">
        <g id="Startseite-/-Menü-(Closed)" transform="translate(-385.000000, -912.000000)" fill="#0000FF">
            <g id="Footer-Desktop" transform="translate(-1.000000, 820.000000)">
                <g id="Footer" transform="translate(1.000000, 0.000000)">
                    <g id="Group-3" transform="translate(385.000000, 92.000000)">
                        <path d="M20,1.89445012 C19.2648581,2.21613892 18.4744239,2.43214164 17.6439505,2.5299285 C18.491856,2.03009874 19.1411995,1.2390875 19.4487117,0.294450119 C18.6560985,0.758324821 17.7765975,1.09445012 16.8418042,1.27585972 C16.0946778,0.490840994 15.0280547,0 13.8481233,0 C11.5825026,0 9.74560113,1.80919305 9.74560113,4.03949608 C9.74560113,4.35655431 9.78209947,4.66298945 9.85046576,4.95961866 C6.44113962,4.79128362 3.41749741,3.18256725 1.39401863,0.739257746 C1.04156453,1.33578481 0.837827532,2.02982635 0.837827532,2.76990126 C0.837827532,4.17051413 1.56398104,5.40715015 2.66356158,6.13142663 C1.99188321,6.11072523 1.35833742,5.92877085 0.804870077,5.62669391 L0.804870077,5.67681307 C0.804870077,6.19407559 0.905921447,6.6865509 1.08568938,7.14089207 C1.5868606,8.40749064 2.71504058,9.36438543 4.09680231,9.6392237 C3.75170235,9.7299285 3.39025985,9.78059244 3.01465381,9.78059244 C2.75126655,9.78059244 2.4944163,9.75498808 2.24301356,9.70704801 C2.76624721,11.3114062 4.28120063,12.4799455 6.07588386,12.5120872 C4.67124258,13.5961866 2.90325217,14.2420157 0.979735251,14.2420157 C0.648254072,14.2420157 0.322220406,14.2226762 0,14.1853592 C1.81756278,15.3312904 3.97505039,16 6.2902435,16 C12.7046903,16 16.6462385,11.5560095 17.6861688,6.94586313 C17.8700223,6.13115424 17.9650814,5.31072523 17.9650814,4.50772898 C17.9650814,4.33367382 17.9618129,4.15825672 17.953914,3.98529111 C18.7549709,3.41600272 19.4508907,2.70480082 20,1.89445012" id="Fill-1"></path>
                    </g>
                </g>
            </g>
        </g>
    </g>
</svg>